<svg class="icon" viewBox="0 0 1024 1024" xmlns="http://www.w3.org/2000/svg" width="200" height="200"><path d="M804.907 981.333c-12.886 0-25.814-4.693-33.878-14.08L512.811 715.392 254.592 967.253c-14.507 14.08-35.499 18.774-53.248 10.966-19.37-7.851-30.677-25.046-30.677-43.819V180.352c0-76.672 62.933-137.685 142.037-137.685h398.592c77.483 0 142.037 61.013 142.037 137.685V934.4c0 18.773-11.306 35.968-30.677 43.819-4.821 3.114-11.264 3.114-17.75 3.114zM511.189 604.288c12.928 0 25.814 4.693 33.878 14.08L754.9 821.76V180.352c1.579-25.045-19.37-43.819-43.648-43.819H312.747c-25.856 0-45.227 18.774-45.227 43.819V821.76l209.835-203.392c9.685-9.387 20.992-14.08 33.877-14.08z"/></svg>