<svg class="icon" viewBox="0 0 1024 1024" xmlns="http://www.w3.org/2000/svg" width="200" height="200"><path d="M512 981.333a130.56 130.56 0 0 1-64-17.066L149.333 793.6a128 128 0 0 1-64-110.933V341.333a128 128 0 0 1 64-110.933L448 59.733a128 128 0 0 1 128 0L874.667 230.4a128 128 0 0 1 64 110.933v341.334a128 128 0 0 1-64 110.933L576 964.267a130.56 130.56 0 0 1-64 17.066zM512 128a42.667 42.667 0 0 0-21.333 5.973L192 304.64a42.667 42.667 0 0 0-21.333 36.693v341.334A42.667 42.667 0 0 0 192 719.36l298.667 170.667a42.667 42.667 0 0 0 42.666 0L832 719.36a42.667 42.667 0 0 0 21.333-36.693V341.333A42.667 42.667 0 0 0 832 304.64L533.333 133.973A42.667 42.667 0 0 0 512 128zm384 554.667z"/></svg>