<svg width="18" height="20" fill="none" xmlns="http://www.w3.org/2000/svg"><path fill-rule="evenodd" clip-rule="evenodd" d="m12.71 13.877 3.268 3.836-.567.487-3.278-3.835a6.14 6.14 0 0 1-3.809 1.284 6.204 6.204 0 0 1-2.458-.5 6.337 6.337 0 0 1-2.02-1.347 6.335 6.335 0 0 1-1.346-2.02A6.204 6.204 0 0 1 2 9.325c0-.856.167-1.675.5-2.458a6.335 6.335 0 0 1 1.347-2.02A6.334 6.334 0 0 1 5.867 3.5 6.203 6.203 0 0 1 8.323 3c.857 0 1.676.167 2.459.5a6.333 6.333 0 0 1 2.02 1.347 6.336 6.336 0 0 1 1.345 2.02c.334.782.5 1.601.5 2.457 0 .88-.17 1.713-.513 2.498a6.33 6.33 0 0 1-1.426 2.055zm-4.385 1.028c1.01 0 1.942-.25 2.799-.749a5.548 5.548 0 0 0 2.032-2.033c.5-.856.749-1.789.749-2.799s-.25-1.942-.748-2.799a5.549 5.549 0 0 0-2.033-2.033 5.461 5.461 0 0 0-2.8-.748c-1.01 0-1.942.25-2.799.748a5.548 5.548 0 0 0-2.032 2.033 5.461 5.461 0 0 0-.749 2.8c0 1.01.25 1.942.749 2.799a5.547 5.547 0 0 0 2.032 2.032c.857.5 1.79.749 2.8.749z" fill="#C4C4C4" stroke="#C4C4C4" stroke-width="1.2" stroke-linejoin="round"/></svg>