<svg class="icon" viewBox="0 0 1024 1024" xmlns="http://www.w3.org/2000/svg" width="20" height="20"><path d="M755.84 915.2H271.36c-74.24 0-134.4-60.16-134.4-134.4V295.68c0-74.24 60.16-134.4 134.4-134.4h236.8c17.92 0 32 14.08 32 32s-14.08 32-32 32h-236.8c-39.04 0-70.4 31.36-70.4 70.4V780.8c0 39.04 31.36 70.4 70.4 70.4h485.12c39.04 0 70.4-31.36 70.4-70.4V535.04c0-17.92 14.08-32 32-32s32 14.08 32 32V780.8c0 74.24-60.8 134.4-135.04 134.4zm103.04-553.6c-17.92 0-32-14.08-32-32V225.28H720c-17.92 0-32-14.08-32-32s14.08-32 32-32h138.88c17.92 0 32 14.08 32 32V329.6c0 17.92-14.72 32-32 32z" fill="#515151"/><path d="M503.04 581.12c-8.32 0-16.64-3.2-22.4-9.6-12.8-12.8-12.8-32.64 0-45.44L814.72 192c12.8-12.8 32.64-12.8 45.44 0s12.8 32.64 0 45.44L525.44 572.16c-6.4 5.76-14.08 8.96-22.4 8.96z" fill="#515151"/></svg>