<svg width="20" height="20" xmlns="http://www.w3.org/2000/svg"><g fill="#000" fill-rule="nonzero"><path d="M14.48.008a1.996 1.996 0 0 1 1.995 1.996v2.994h1.496a1.996 1.996 0 0 1 1.997 1.996V17.97a1.996 1.996 0 0 1-1.997 1.997H2.004A1.995 1.995 0 0 1 .008 17.97V6.994a1.996 1.996 0 0 1 1.996-1.996H3.5V2.004A1.996 1.996 0 0 1 5.497.008h8.982Zm3.991 9.227-7.402 5.842a1.746 1.746 0 0 1-2.164 0l-7.4-5.843v8.737a.501.501 0 0 0 .498.5h15.968a.499.499 0 0 0 .5-.5V9.235Zm-3.992-7.73H5.497a.5.5 0 0 0-.5.499v8.08l4.836 3.818a.25.25 0 0 0 .31 0l4.835-3.817V2.004a.5.5 0 0 0-.499-.5ZM3.5 6.495H2.004a.5.5 0 0 0-.5.499v.333l1.997 1.576V6.495H3.5Zm14.47 0h-1.496v2.407l1.996-1.575v-.333a.5.5 0 0 0-.5-.5Z"/><path d="M7.742 4.998a.748.748 0 1 1 0 1.497.748.748 0 0 1 0-1.497Zm2.496 0a.748.748 0 1 1 0 1.496.748.748 0 0 1 0-1.496Zm2.494 0a.749.749 0 1 1 0 1.497.749.749 0 0 1 0-1.497Z"/></g></svg>