<svg class="icon" viewBox="0 0 1024 1024" xmlns="http://www.w3.org/2000/svg" width="200" height="200"><path d="M469.333 384c-12.8 0-21.333-4.267-29.866-12.8l-140.8-140.8-140.8 140.8c-17.067 17.067-42.667 17.067-59.734 0s-17.066-42.667 0-59.733L268.8 140.8c17.067-17.067 42.667-17.067 59.733 0L499.2 311.467c17.067 17.066 17.067 42.666 0 59.733-8.533 8.533-17.067 12.8-29.867 12.8z"/><path d="M298.667 597.333c-25.6 0-42.667-17.066-42.667-42.666v-384c0-25.6 17.067-42.667 42.667-42.667s42.666 17.067 42.666 42.667v384c0 25.6-17.066 42.666-42.666 42.666zM725.333 896c-12.8 0-21.333-4.267-29.866-12.8L524.8 712.533c-17.067-17.066-17.067-42.666 0-59.733s42.667-17.067 59.733 0l140.8 140.8 140.8-140.8c17.067-17.067 42.667-17.067 59.734 0s17.066 42.667 0 59.733L755.2 883.2c-8.533 8.533-17.067 12.8-29.867 12.8z"/><path d="M725.333 896c-25.6 0-42.666-17.067-42.666-42.667V426.667c0-25.6 17.066-42.667 42.666-42.667S768 401.067 768 426.667v426.666c0 25.6-17.067 42.667-42.667 42.667z"/></svg>