<svg t="1631268583771" class="icon" viewBox="0 0 1024 1024" version="1.1" xmlns="http://www.w3.org/2000/svg" p-id="2019" width="200" height="200"><path d="M512 981.333333a130.56 130.56 0 0 1-64-17.066666l-298.666667-170.666667A128 128 0 0 1 85.333333 682.666667V341.333333a128 128 0 0 1 64-110.933333l298.666667-170.666667a128 128 0 0 1 128 0l298.666667 170.666667A128 128 0 0 1 938.666667 341.333333v341.333334a128 128 0 0 1-64 110.933333l-298.666667 170.666667a130.56 130.56 0 0 1-64 17.066666z m0-853.333333a42.666667 42.666667 0 0 0-21.333333 5.973333l-298.666667 170.666667A42.666667 42.666667 0 0 0 170.666667 341.333333v341.333334a42.666667 42.666667 0 0 0 21.333333 36.693333l298.666667 170.666667a42.666667 42.666667 0 0 0 42.666666 0l298.666667-170.666667A42.666667 42.666667 0 0 0 853.333333 682.666667V341.333333a42.666667 42.666667 0 0 0-21.333333-36.693333l-298.666667-170.666667A42.666667 42.666667 0 0 0 512 128z m384 554.666667z" p-id="2020"></path></svg>