<?xml version="1.0" encoding="UTF-8"?>
<svg width="14px" height="14px" viewBox="0 0 14 14" version="1.1" xmlns="http://www.w3.org/2000/svg" xmlns:xlink="http://www.w3.org/1999/xlink">
    <title>Group</title>
    <g id="Page-1" stroke="none" stroke-width="1" fill="none" fill-rule="evenodd">
        <g id="Group" fill="#000000" fill-rule="nonzero">
            <path d="M1.53218072,7.56866726 C1.34759391,7.56866726 1.1715598,7.55948104 0.996845556,7.57086703 C0.751193244,7.58693413 0.545928631,7.53399895 0.409120765,7.30881324 C0.262545934,7.06741968 0.226381761,6.21586369 0.345855479,5.95923015 C0.399072229,5.84501828 0.480692359,5.73422044 0.574807174,5.65038294 C1.67903712,4.66696416 2.78800096,3.68893042 3.89578573,2.709612 C4.71582345,1.98467457 5.53596677,1.25984275 6.35605728,0.534975705 C6.74175553,0.194047106 7.19474903,0.19670442 7.58014811,0.537685815 C9.5052429,2.24078021 11.4308832,3.94324104 13.3568755,5.64524431 C13.7177252,5.96415765 13.7568283,7.06558949 13.4456229,7.4083483 C13.3487276,7.51506337 13.2318584,7.57028631 13.086621,7.56912482 C12.8615233,7.5673474 12.6364432,7.56866726 12.397971,7.56866726 L12.397971,7.68249197 C12.397971,9.16126295 12.3972142,10.0415567 12.3983757,11.5203276 C12.3987981,12.0182844 12.1923544,12.3994599 11.765195,12.656727 C11.5566219,12.7823248 11.3258752,12.8237509 11.0845696,12.8237509 C8.33790606,12.8230645 5.59120732,12.8234693 2.84454378,12.8225366 C2.75533885,12.8224838 2.6645677,12.8192985 2.57721057,12.8031786 C1.94684551,12.6870486 1.53290227,12.1807855 1.53244472,11.5258183 C1.53145922,10.0470473 1.53216314,9.16675356 1.53216314,7.68798259 C1.53218072,7.6512377 1.53218072,7.6145456 1.53218072,7.56866726 L1.53218072,7.56866726 L1.53218072,7.56866726 Z" id="Path"></path>
            <path d="M11.0849744,13.0877228 L11.0844816,13.0877228 C9.83695009,13.0873885 8.58943614,13.0873181 7.34190462,13.0872301 C5.8427374,13.0871245 4.3435702,13.0870013 2.84442058,13.0865085 C2.7518544,13.0864558 2.64209487,13.0835873 2.52927325,13.0627687 C1.77572127,12.923937 1.26898308,12.3063658 1.26843752,11.5260118 C1.2677512,10.5027509 1.26787438,9.76600513 1.26801518,8.91932383 C1.26806797,8.58189726 1.26812077,8.22703094 1.26813836,7.82955955 C1.24460966,7.82929558 1.22136252,7.8291548 1.19815059,7.8291548 C1.12629742,7.8291548 1.06778364,7.83079142 1.01400374,7.83427585 C0.981376801,7.83642282 0.949348207,7.8375139 0.918885842,7.8375139 C0.588815291,7.8375139 0.341403159,7.70575668 0.183512728,7.44588509 C-0.00758537982,7.1311777 -0.0528829673,6.19029361 0.106538507,5.84783398 C0.175294401,5.70027366 0.279211365,5.56017493 0.399213023,5.45328388 C1.28974886,4.66017129 2.19811161,3.85752053 3.07657514,3.08130215 C3.29137792,2.8914887 3.50618072,2.70169286 3.72094832,2.51184422 C4.27748923,2.01983566 4.83411812,1.5278623 5.39072941,1.03588894 L6.18123746,0.33719033 C6.41847787,0.127473398 6.68975307,0.0166403744 6.96574456,0.0166403744 C7.24303832,0.0166403744 7.51598533,0.128458908 7.75509114,0.339988438 C9.58262188,1.95678155 11.4721508,3.62744256 13.5316602,5.4474589 C13.8421088,5.72179616 13.9036319,6.26075654 13.9156514,6.47974768 C13.9254359,6.65750641 13.934499,7.26258296 13.6410501,7.58582543 C13.4920292,7.749928 13.3070024,7.83314957 13.0910557,7.83314957 L13.0845092,7.83311436 C12.9447801,7.83202328 12.8049981,7.83211128 12.6619253,7.83235765 C12.6619077,8.21397313 12.6618549,8.55643277 12.6617845,8.881963 C12.6616437,9.7417197 12.6615029,10.4842553 12.6623125,11.5201517 C12.6628052,12.119984 12.40677,12.5784857 11.901334,12.8828982 C11.6724176,13.0207091 11.4053835,13.0877228 11.0849744,13.0877228 Z M1.19815059,7.30121087 C1.25425343,7.30121087 1.31091941,7.30210838 1.36572,7.30297069 C1.42023902,7.303833 1.47662343,7.30473051 1.53216313,7.30473051 L1.7961351,7.30473051 L1.7961351,7.56870248 C1.7961351,7.6147216 1.7961351,7.65155449 1.7960823,7.68844016 C1.7960823,8.14361583 1.79601191,8.54242469 1.79595912,8.91942946 C1.79581834,9.76596996 1.79569514,10.502575 1.79638147,11.5256775 C1.79675102,12.0513689 2.1219997,12.4509345 2.62500709,12.5436062 C2.69617392,12.5567344 2.77598146,12.5585646 2.84464937,12.5585998 C4.3436934,12.5590926 5.84280781,12.5592158 7.34193984,12.5593214 C8.58948897,12.5594094 9.83703809,12.5594973 11.0845872,12.5598141 L11.0849568,12.8237861 L11.0849568,12.5598141 C11.3097377,12.5598141 11.4826042,12.5187577 11.6289678,12.4306262 C11.9741024,12.2227395 12.1347029,11.9335846 12.1343686,11.5205741 C12.133559,10.4843961 12.1336998,9.74177255 12.1338406,8.88187505 C12.133911,8.51432049 12.1339814,8.1252434 12.1339814,7.68252721 L12.1339814,7.30474812 L12.3979534,7.30474812 C12.4701409,7.30474812 12.541079,7.30462494 12.6111723,7.30450175 C12.7734095,7.30420259 12.9310536,7.30397381 13.08868,7.30518808 L13.0910382,7.30520568 C13.1561688,7.30520568 13.2022759,7.28368317 13.2501957,7.23092397 C13.3335932,7.13904412 13.4079101,6.8614864 13.388517,6.50873185 C13.3693174,6.1597785 13.2680402,5.91905367 13.1820733,5.84306494 C11.122476,4.02297816 9.23287663,2.35224676 7.4052579,0.73538326 C7.2621499,0.608782299 7.11429039,0.544584316 6.96574458,0.544584316 C6.81846581,0.544584316 6.67213735,0.607902398 6.53089475,0.732761132 L5.74036909,1.43147733 C5.1837754,1.9234331 4.6271641,2.41538887 4.07062318,2.90739741 C3.8558204,3.09728125 3.6409824,3.28711229 3.42614441,3.47694334 C2.54806805,4.25282735 1.64011006,5.05512617 0.750366138,5.84753482 C0.683845209,5.90680532 0.623589198,5.98816149 0.585119688,6.07074952 C0.560869462,6.12283998 0.527521008,6.32025582 0.541405923,6.62787117 C0.555290856,6.93502895 0.606026255,7.12456082 0.634746411,7.17184701 C0.686396932,7.25686358 0.751967571,7.30958759 0.918868249,7.30958759 C0.937891829,7.30958759 0.958323251,7.30888367 0.979616998,7.30749342 C1.04517003,7.30318186 1.11459466,7.30121087 1.19815059,7.30121087 Z" id="Shape"></path>
        </g>
    </g>
</svg>