<svg width="30" height="30" viewBox="0 0 30 30" fill="none" xmlns="http://www.w3.org/2000/svg">
<path fill-rule="evenodd" clip-rule="evenodd" d="M15.1083 29.4001C23.0612 29.4001 29.5082 22.953 29.5082 15.0001C29.5082 7.0472 23.0612 0.600098 15.1083 0.600098C7.15535 0.600098 0.708252 7.0472 0.708252 15.0001C0.708252 22.953 7.15535 29.4001 15.1083 29.4001ZM12.781 10.1273C12.0781 9.42436 10.9384 9.42436 10.2355 10.1273C9.53252 10.8302 9.53252 11.9699 10.2355 12.6729L12.5627 15.0001L10.2355 17.3273C9.53252 18.0302 9.53252 19.1699 10.2355 19.8729C10.9384 20.5758 12.0781 20.5758 12.781 19.8729L15.1083 17.5457L17.4355 19.8729C18.1384 20.5758 19.2781 20.5758 19.981 19.8729C20.684 19.1699 20.684 18.0302 19.981 17.3273L17.6538 15.0001L19.981 12.6729C20.684 11.9699 20.684 10.8302 19.981 10.1273C19.2781 9.42436 18.1384 9.42436 17.4355 10.1273L15.1083 12.4545L12.781 10.1273Z" fill="#F5F5F5"/>
</svg>
