<?xml version="1.0" encoding="UTF-8"?>
<svg width="20px" height="20px" viewBox="0 0 20 20" version="1.1" xmlns="http://www.w3.org/2000/svg" xmlns:xlink="http://www.w3.org/1999/xlink">
    <title>slider-invite</title>
    <g id="Page-1" stroke="none" stroke-width="1" fill="none" fill-rule="evenodd">
        <g id="slider-invite" fill="#000000" fill-rule="nonzero">
            <path d="M14.4792,0.00769043178 C15.0085,0.00789454 15.516,0.218293 15.8902,0.592622 C16.2644,0.966952 16.4746,1.47456 16.4746,2.00384 L16.4746,4.99769 L17.9715,4.99769 C18.501,4.99769 19.0087,5.208 19.383,5.58235 C19.7574,5.9567 19.9677,6.46443 19.9677,6.99384 L19.9677,17.9715 C19.9677,18.5009 19.7574,19.0087 19.383,19.383 C19.0087,19.7574 18.501,19.9677 17.9715,19.9677 L2.00385,19.9677 C1.74171,19.9677 1.48214,19.9161 1.23995,19.8157 C0.997768,19.7154 0.777713,19.5684 0.592353,19.383 C0.218002,19.0087 0.00769348,18.5009 0.00769348,17.9715 L0.00769348,6.99384 C0.00769348,6.46443 0.218002,5.9567 0.592353,5.58235 C0.966705,5.208 1.47443,4.99769 2.00385,4.99769 L3.5,4.99769 L3.5,2.00384 C3.5,1.74164 3.55166,1.48201 3.65202,1.23977 C3.75239,0.997537 3.89949,0.777449 4.08493,0.592078 C4.27037,0.406708 4.49052,0.259689 4.73279,0.159418 C4.97507,0.059147 5.23472,0.00769043178 5.49692,0.00769043178 L14.4792,0.00769043178 Z M18.4715,9.23461 L11.0692,15.0769 C10.761,15.3204 10.3797,15.4528 9.98692,15.4528 C9.59415,15.4528 9.21284,15.3204 8.90462,15.0769 L1.50461942,9.23384 L1.50461942,17.9708 C1.50461942,18.0363 1.51733,18.1013 1.54232,18.1619 C1.56732,18.2225 1.60401,18.2776 1.65029,18.324 C1.69658,18.3704 1.75156,18.4073 1.81209,18.4325 C1.87262,18.4577 1.93752,18.4707 2.00308,18.4708006 L17.9708,18.4708006 C18.0365,18.4709 18.1015,18.458 18.1622,18.4329 C18.2229,18.4078 18.2781,18.371 18.3245,18.3245 C18.371,18.2781 18.4078,18.2229 18.4329,18.1622 C18.458,18.1015 18.4709,18.0365 18.4708,17.9708 L18.4708,9.23461 L18.4715,9.23461 Z M14.4792,1.50461 L5.49692,1.50461 C5.43136,1.50461 5.36645,1.51753 5.30588,1.54262 C5.24531,1.5677 5.19027,1.60448 5.14391,1.65083 C5.09756,1.69719 5.06078,1.75223 5.0357,1.8128 C5.01061,1.87337 4.99769,1.93828 4.99769,2.00384 L4.99769,10.0846 L9.83308,13.9023 C9.87709,13.9371 9.93157,13.9561 9.98769,13.9561 C10.0438,13.9561 10.0983,13.9371 10.1423,13.9023 L14.9777,10.0846 L14.9777,2.00384 C14.9777,1.87157 14.9252,1.74471 14.8317,1.65111 C14.7383,1.5575 14.6115,1.50482 14.4792,1.50461 Z M3.5,6.49461 L2.00385,6.49461 C1.87144,6.49461 1.74446,6.54721 1.65084,6.64083 C1.55721,6.73446 1.50462,6.86144 1.50462,6.99384 L1.50462,7.32692 L3.50077,8.90308 L3.50077,6.49538 L3.5,6.49461 Z M17.9708,6.49461 L16.4738,6.49461 L16.4738,8.90231 L18.47,7.32692 L18.47,6.99384 C18.47,6.86144 18.4174,6.73446 18.3238,6.64083 C18.2302,6.54721 18.1032,6.49461 17.9708,6.49461 Z" id="Shape"></path>
            <path d="M7.74231,4.99769 C7.94081,4.99769 8.13119,5.07655 8.27155,5.21691 C8.41192,5.35728 8.49077,5.54765 8.49077,5.74615 C8.49077,5.94466 8.41192,6.13503 8.27155,6.2754 C8.13119,6.41576 7.94081,6.49462 7.74231,6.49462 C7.5438,6.49462 7.35343,6.41576 7.21307,6.2754 C7.0727,6.13503 6.99385,5.94466 6.99385,5.74615 C6.99385,5.54765 7.0727,5.35728 7.21307,5.21691 C7.35343,5.07655 7.5438,4.99769 7.74231,4.99769 Z M10.2377,4.99769 C10.4362,4.99769 10.6266,5.07655 10.7669,5.21691 C10.9073,5.35728 10.9862,5.54765 10.9862,5.74615 C10.9862,5.94466 10.9073,6.13503 10.7669,6.2754 C10.6266,6.41576 10.4362,6.49462 10.2377,6.49462 C10.0392,6.49462 9.84881,6.41576 9.70845,6.2754 C9.56809,6.13503 9.48923,5.94466 9.48923,5.74615 C9.48923,5.54765 9.56809,5.35728 9.70845,5.21691 C9.84881,5.07655 10.0392,4.99769 10.2377,4.99769 Z M12.7323,4.99769 C12.9308,4.99769 13.1212,5.07655 13.2616,5.21691 C13.4019,5.35728 13.4808,5.54765 13.4808,5.74615 C13.4808,5.94466 13.4019,6.13503 13.2616,6.2754 C13.1212,6.41576 12.9308,6.49462 12.7323,6.49462 C12.5338,6.49462 12.3434,6.41576 12.2031,6.2754 C12.0627,6.13503 11.9838,5.94466 11.9838,5.74615 C11.9838,5.54765 12.0627,5.35728 12.2031,5.21691 C12.3434,5.07655 12.5338,4.99769 12.7323,4.99769 Z" id="Shape"></path>
        </g>
    </g>
</svg>