<?xml version="1.0" encoding="UTF-8"?>
<svg width="20px" height="18px" viewBox="0 0 20 18" version="1.1" xmlns="http://www.w3.org/2000/svg" xmlns:xlink="http://www.w3.org/1999/xlink">
    <title>space</title>
    <g id="Page-1" stroke="none" stroke-width="1" fill="none" fill-rule="evenodd">
        <g id="space" fill="#000000" fill-rule="nonzero">
            <path d="M18.34375,0 L1.65482955,0 C0.771306818,0 0.0568181818,0.714488636 0.0568181818,1.59801136 L0.0568181818,15.4475 C0.0568181818,16.3309091 0.771306818,17.0454545 1.65482955,17.0454545 L18.3452273,17.0454545 C19.2286364,17.0454545 19.9431818,16.3309091 19.9431818,15.4475 L19.9431818,1.59801136 C19.9431818,0.714488636 19.2286364,0 18.3452273,0 L18.34375,0 Z M5.75,15.6306818 L1.48011364,15.6306818 L1.48011364,6.39204545 L5.75,6.39204545 L5.75,15.6306818 Z M18.5028409,15.6306818 L7.16193182,15.6306818 L7.16193182,6.39204545 L18.5255682,6.39204545 C18.5198864,12.5511364 18.5113636,15.6306818 18.5028409,15.6306818 Z M18.5255682,5.19034091 L1.48011364,5.19034091 L1.48011364,1.42329545 L18.5255682,1.42329545 L18.5255682,5.19034091 Z" id="Shape"></path>
        </g>
    </g>
</svg>