<svg t="1632486078445" class="icon" viewBox="0 0 1024 1024" version="1.1" xmlns="http://www.w3.org/2000/svg" p-id="7861" width="200" height="200"><path d="M469.333333 384c-12.8 0-21.333333-4.266667-29.866666-12.8L298.666667 230.4 157.866667 371.2c-17.066667 17.066667-42.666667 17.066667-59.733334 0s-17.066667-42.666667 0-59.733333l170.666667-170.666667c17.066667-17.066667 42.666667-17.066667 59.733333 0l170.666667 170.666667c17.066667 17.066667 17.066667 42.666667 0 59.733333-8.533333 8.533333-17.066667 12.8-29.866667 12.8z" p-id="7862"></path><path d="M298.666667 597.333333c-25.6 0-42.666667-17.066667-42.666667-42.666666V170.666667c0-25.6 17.066667-42.666667 42.666667-42.666667s42.666667 17.066667 42.666666 42.666667v384c0 25.6-17.066667 42.666667-42.666666 42.666666zM725.333333 896c-12.8 0-21.333333-4.266667-29.866666-12.8l-170.666667-170.666667c-17.066667-17.066667-17.066667-42.666667 0-59.733333s42.666667-17.066667 59.733333 0l140.8 140.8 140.8-140.8c17.066667-17.066667 42.666667-17.066667 59.733334 0s17.066667 42.666667 0 59.733333l-170.666667 170.666667c-8.533333 8.533333-17.066667 12.8-29.866667 12.8z" p-id="7863"></path><path d="M725.333333 896c-25.6 0-42.666667-17.066667-42.666666-42.666667V426.666667c0-25.6 17.066667-42.666667 42.666666-42.666667s42.666667 17.066667 42.666667 42.666667v426.666666c0 25.6-17.066667 42.666667-42.666667 42.666667z" p-id="7864"></path></svg>